<?xml version="1.0" encoding="utf-8"?>
<svg class="canvas" version="1.1" width="100%" height="100%" viewBox="0 0 344 81" xmlns="http://www.w3.org/2000/svg">
  <g class="logo-entity-inner" transform="matrix(0.50578, 0, 0, 0.590706, 31.072432, 27.965748)" style="">
    <g stroke="none" stroke-width="1" fill="none" fill-rule="evenodd" transform="matrix(1.626016, 0, 0, 1.626016, 0, 0)">
      <g transform="translate(-25.000000, -19.000000)" fill="#000000">
        <path d="M 20.185 34.815 C 19.512 34.762 18.843 34.703 18.181 34.639 C 17.759 34.598 16.86 34.486 15.799 34.346 L 15.799 42.607 C 15.799 43.679 15.49 45.058 14.514 46.508 C 12.768 49.102 9.436 50.752 4.835 50.752 C 0.234 50.752 -3.098 49.102 -4.845 46.508 C -5.821 45.058 -6.13 43.679 -6.13 42.607 C -6.13 40.808 -4.166 39.349 -1.744 39.349 C 0.678 39.349 2.642 40.808 2.642 42.607 C 2.642 42.757 2.744 43.211 3.001 43.593 C 3.311 44.053 3.679 44.236 4.835 44.236 C 5.99 44.236 6.359 44.053 6.668 43.593 C 6.926 43.211 7.028 42.757 7.028 42.607 L 7.028 32.863 C -0.776 31.012 -6.13 28.062 -6.13 24.013 C -6.13 9.091 10.154 -3.005 30.242 -3.005 C 50.329 -3.005 66.614 9.091 66.614 24.013 C 66.614 27.746 62.062 30.545 55.236 32.41 C 55.26 32.548 55.273 32.69 55.273 32.833 L 55.273 42.607 C 55.273 42.757 55.374 43.211 55.632 43.593 C 55.941 44.053 56.31 44.236 57.466 44.236 C 58.621 44.236 58.99 44.053 59.299 43.593 C 59.557 43.211 59.658 42.757 59.658 42.607 C 59.658 40.808 61.622 39.349 64.044 39.349 C 66.467 39.349 68.43 40.808 68.43 42.607 C 68.43 43.679 68.121 45.058 67.145 46.508 C 65.399 49.102 62.067 50.752 57.466 50.752 C 52.864 50.752 49.532 49.102 47.786 46.508 C 46.81 45.058 46.501 43.679 46.501 42.607 L 46.501 34.145 C 46.494 34.146 46.487 34.147 46.48 34.148 C 45.332 34.307 43.562 34.515 42.366 34.639 C 42.28 34.648 42.197 34.656 42.115 34.664 L 42.115 55.639 C 42.115 55.789 42.217 56.243 42.474 56.625 C 42.784 57.085 43.152 57.268 44.308 57.268 C 45.463 57.268 45.832 57.085 46.141 56.625 C 46.399 56.243 46.501 55.789 46.501 55.639 C 46.501 53.84 48.464 52.381 50.887 52.381 C 53.309 52.381 55.273 53.84 55.273 55.639 C 55.273 56.711 54.963 58.09 53.987 59.54 C 52.241 62.134 48.909 63.784 44.308 63.784 C 39.707 63.784 36.375 62.134 34.628 59.54 C 33.652 58.09 33.343 56.711 33.343 55.639 L 33.343 35.168 C 31.885 35.202 30.42 35.212 28.957 35.198 L 28.957 55.639 C 28.957 56.711 28.648 58.09 27.672 59.54 C 25.925 62.134 22.594 63.784 17.992 63.784 C 13.391 63.784 10.059 62.134 8.313 59.54 C 7.337 58.09 7.028 56.711 7.028 55.639 C 7.028 53.84 8.991 52.381 11.414 52.381 C 13.836 52.381 15.799 53.84 15.799 55.639 C 15.799 55.789 15.901 56.243 16.159 56.625 C 16.468 57.085 16.837 57.268 17.992 57.268 C 19.148 57.268 19.516 57.085 19.826 56.625 C 20.084 56.243 20.185 55.789 20.185 55.639 L 20.185 34.815 Z M 8.908 14.123 C 9.122 13.858 9.573 13.358 10.247 12.702 C 11.383 11.596 12.716 10.488 14.227 9.457 C 17.491 7.23 21.107 5.687 25.001 5.108 C 26.189 4.932 26.959 4.074 26.722 3.191 C 26.484 2.309 25.329 1.737 24.141 1.914 C 19.372 2.622 15.071 4.458 11.26 7.057 C 9.546 8.226 8.044 9.475 6.76 10.726 C 5.982 11.484 5.441 12.083 5.147 12.447 C 4.524 13.218 4.861 14.219 5.899 14.682 C 6.938 15.145 8.285 14.895 8.908 14.123 Z" style="fill: rgb(255, 255, 255);"/>
        <g fill-rule="evenodd" transform="matrix(1.201453, 0, 0, 1.008932, 18.357935, 6.870183)" style="">
          <polygon points="10.965 -0.625 -0.9 6.219 -0.9 23.106 16.05 23.103 16.05 10.13 10.965 7.197 5.88 10.13 5.878 16.324 9.27 14.373 9.27 12.088 10.965 11.111 12.66 12.088 12.66 19.716 2.49 19.716 2.49 8.177 10.965 3.289 10.965 3.289 19.44 8.177 19.44 16.324 22.829 14.372 22.83 6.219" style="fill: rgb(0, 45, 114);"/>
        </g>
      </g>
    </g>
  </g>
  <g transform="matrix(0.546266, 0, 0, 0.514959, -202.810715, -41.652252)" style="">
    <g class="logo-entity" id="title" transform="matrix(1.225, 0, 0, 1.225, 500.25528, 77.926376)">
      <g class="logo-entity-inner">
        <text class="[object Object]" style="dominant-baseline: text-before-edge; fill: rgb(255, 255, 255); font-family: Questrial; font-size: 80px; font-weight: bold; white-space: pre; alignment-baseline: text-before-edge;">CLAGEUG</text>
      </g>
    </g>
  </g>
  <g class="logo-entity" id="subtitle" transform="matrix(0.637896, 0.001637, 0, 0.625839, 73.524261, 49.855183)" style="">
    <g class="logo-entity-inner">
      <g>
        <text class="[object Object]" x="0" y="0" style="dominant-baseline: text-before-edge; fill: rgb(255, 255, 255); font-family: Questrial; font-size: 30px; white-space: pre; alignment-baseline: text-before-edge;">~CloudGarage User Group~</text>
      </g>
    </g>
  </g>
</svg>