<?xml version="1.0" encoding="utf-8"?>
<svg class="canvas" version="1.1" width="100%" height="100%" viewBox="0 0 344 81" xmlns="http://www.w3.org/2000/svg">
  <path d="M 27.113 43.156 C 26.559 43.105 26.009 43.048 25.464 42.987 C 25.117 42.948 24.378 42.84 23.505 42.706 L 23.505 50.64 C 23.505 51.67 23.251 52.994 22.449 54.387 C 21.013 56.879 18.273 58.463 14.489 58.463 C 10.705 58.463 7.964 56.879 6.528 54.387 C 5.725 52.994 5.471 51.67 5.471 50.64 C 5.471 48.912 7.086 47.511 9.078 47.511 C 11.07 47.511 12.685 48.912 12.685 50.64 C 12.685 50.784 12.769 51.22 12.98 51.587 C 13.235 52.029 13.538 52.205 14.489 52.205 C 15.438 52.205 15.742 52.029 15.996 51.587 C 16.208 51.22 16.292 50.784 16.292 50.64 L 16.292 41.281 C 9.874 39.503 5.471 36.67 5.471 32.781 C 5.471 18.448 18.863 6.83 35.383 6.83 C 51.903 6.83 65.296 18.448 65.296 32.781 C 65.296 36.366 61.552 39.055 55.939 40.846 C 55.958 40.979 55.969 41.115 55.969 41.252 L 55.969 50.64 C 55.969 50.784 56.052 51.22 56.264 51.587 C 56.518 52.029 56.822 52.205 57.773 52.205 C 58.723 52.205 59.026 52.029 59.28 51.587 C 59.492 51.22 59.575 50.784 59.575 50.64 C 59.575 48.912 61.191 47.511 63.182 47.511 C 65.175 47.511 66.79 48.912 66.79 50.64 C 66.79 51.67 66.535 52.994 65.733 54.387 C 64.297 56.879 61.557 58.463 57.773 58.463 C 53.988 58.463 51.248 56.879 49.812 54.387 C 49.009 52.994 48.755 51.67 48.755 50.64 L 48.755 42.512 C 48.749 42.513 48.743 42.514 48.738 42.515 C 47.794 42.668 46.338 42.868 45.354 42.987 C 45.284 42.996 45.215 43.003 45.148 43.011 L 45.148 63.157 C 45.148 63.301 45.232 63.738 45.443 64.104 C 45.698 64.546 46.001 64.722 46.951 64.722 C 47.901 64.722 48.205 64.546 48.459 64.104 C 48.671 63.738 48.755 63.301 48.755 63.157 C 48.755 61.429 50.369 60.028 52.362 60.028 C 54.354 60.028 55.969 61.429 55.969 63.157 C 55.969 64.187 55.714 65.512 54.912 66.904 C 53.476 69.396 50.735 70.981 46.951 70.981 C 43.168 70.981 40.427 69.396 38.991 66.904 C 38.188 65.512 37.934 64.187 37.934 63.157 L 37.934 43.495 C 36.735 43.528 35.53 43.537 34.327 43.524 L 34.327 63.157 C 34.327 64.187 34.073 65.512 33.27 66.904 C 31.833 69.396 29.094 70.981 25.309 70.981 C 21.525 70.981 18.785 69.396 17.349 66.904 C 16.546 65.512 16.292 64.187 16.292 63.157 C 16.292 61.429 17.907 60.028 19.899 60.028 C 21.891 60.028 23.505 61.429 23.505 63.157 C 23.505 63.301 23.589 63.738 23.802 64.104 C 24.056 64.546 24.359 64.722 25.309 64.722 C 26.26 64.722 26.562 64.546 26.817 64.104 C 27.029 63.738 27.113 63.301 27.113 63.157 L 27.113 43.156 Z M 17.838 23.281 C 18.014 23.027 18.385 22.547 18.939 21.917 C 19.874 20.854 20.97 19.79 22.213 18.8 C 24.897 16.661 27.871 15.179 31.073 14.623 C 32.05 14.453 32.684 13.629 32.489 12.781 C 32.293 11.934 31.343 11.385 30.366 11.555 C 26.444 12.235 22.907 13.998 19.773 16.495 C 18.363 17.617 17.128 18.817 16.072 20.019 C 15.432 20.747 14.987 21.322 14.745 21.672 C 14.233 22.412 14.51 23.374 15.364 23.818 C 16.218 24.263 17.326 24.023 17.838 23.281 Z" style="fill: rgb(255, 255, 255);" fill="#000000" stroke="none" stroke-width="1" fill-rule="evenodd"/>
  <g fill-rule="evenodd" transform="matrix(0.988082, 0, 0, 0.969076, 25.609957, 16.315096)" style="" fill="#000000" stroke="none" stroke-width="1">
    <polygon points="10.965 -0.625 -0.9 6.219 -0.9 23.106 16.05 23.103 16.05 10.13 10.965 7.197 5.88 10.13 5.878 16.324 9.27 14.373 9.27 12.088 10.965 11.111 12.66 12.088 12.66 19.716 2.49 19.716 2.49 8.177 10.965 3.289 10.965 3.289 19.44 8.177 19.44 16.324 22.829 14.372 22.83 6.219" style="fill: rgb(255, 255, 255);"/>
  </g>
  <g transform="matrix(0.546266, 0, 0, 0.514959, -68.525002, -45.461781)" style="">
    <g class="logo-entity" id="title" transform="matrix(1.225, 0, 0, 1.225, 500.25528, 77.926376)">
      <g class="logo-entity-inner">
        <text class="Organization_name" style="dominant-baseline: text-before-edge; fill: rgb(255, 255, 255); font-family: Questrial; font-size: 80px; font-weight: bold; text-anchor: middle; white-space: pre; alignment-baseline: text-before-edge;">CLAGEUG</text>
      </g>
    </g>
  </g>
  <g class="logo-entity" id="subtitle" transform="matrix(0.637896, 0.001637, 0, 0.625839, 205.714737, 49.093277)" style="">
    <g class="logo-entity-inner">
      <g>
        <text class="Description" x="0" y="0" style="dominant-baseline: text-before-edge; fill: rgb(255, 255, 255); font-family: Questrial; font-size: 30px; text-anchor: middle; white-space: pre; alignment-baseline: text-before-edge;">~CloudGarage User Group~</text>
      </g>
    </g>
  </g>
</svg>